<?xml version="1.0" encoding="utf-8" ?>
<svg baseProfile="full" height="600" version="1.1" width="800" xmlns="http://www.w3.org/2000/svg" xmlns:ev="http://www.w3.org/2001/xml-events" xmlns:xlink="http://www.w3.org/1999/xlink"><defs /><polygon fill="blue" opacity="0.5" points="207.72593389687455,379.29447639179836 222.2198004226157,325.2026301196105 246.36296694843728,389.64723819589915" stroke="black" /><polygon fill="blue" opacity="0.5" points="246.36296694843728,389.64723819589915 291.2116570824605,376.81778016906236 323.63703305156275,410.35276180410085" stroke="black" /><polygon fill="red" opacity="0.5" points="323.63703305156275,410.35276180410085 376.7679326288666,366.61367733601384 362.27406610312545,420.70552360820164" stroke="black" /><polygon fill="red" opacity="0.5" points="207.72593389687455,379.29447639179836 362.27406610312545,420.70552360820164 274.64723819589915,438.63703305156275" stroke="black" /><polygon fill="blue" opacity="0.5" points="314.5743741577959,368.0 336.9743741577959,329.20206191045713 342.28718707889794,384.0" stroke="black" /><polygon fill="blue" opacity="0.5" points="342.28718707889794,384.0 379.6,383.37231224733875 397.71281292110206,416.0" stroke="black" /><polygon fill="red" opacity="0.5" points="397.71281292110206,416.0 447.8256258422041,393.20206191045713 425.4256258422041,432.0" stroke="black" /><polygon fill="red" opacity="0.5" points="314.5743741577959,368.0 425.4256258422041,432.0 354.0,427.71281292110206" stroke="black" /><polygon fill="blue" opacity="0.5" points="418.7961328032488,363.7961328032488 444.13883984097464,338.45342576552287 436.89806640162436,381.89806640162436" stroke="black" /><polygon fill="blue" opacity="0.5" points="436.89806640162436,381.89806640162436 465.86116015902536,389.13883984097464 473.10193359837564,418.10193359837564" stroke="black" /><polygon fill="red" opacity="0.5" points="473.10193359837564,418.10193359837564 516.5465742344771,410.86116015902536 491.2038671967512,436.2038671967512" stroke="black" /><polygon fill="red" opacity="0.5" points="418.7961328032488,363.7961328032488 491.2038671967512,436.2038671967512 436.89806640162436,418.10193359837564" stroke="black" /><polygon fill="blue" opacity="0.5" points="519.52,364.5275994609894 544.3506803773074,350.1915994609894 529.76,382.26379973049467" stroke="black" /><polygon fill="blue" opacity="0.5" points="529.76,382.26379973049467 550.6417201617032,393.856 550.24,417.73620026950533" stroke="black" /><polygon fill="red" opacity="0.5" points="550.24,417.73620026950533 585.3106803773074,421.1364005390106 560.48,435.4724005390106" stroke="black" /><polygon fill="red" opacity="0.5" points="519.52,364.5275994609894 560.48,435.4724005390106 522.2637997304947,410.24" stroke="black" /><polygon fill="blue" opacity="0.5" points="616.5190175300806,368.3485425241598 638.6750377631687,362.41185479521624 620.7595087650403,384.1742712620799" stroke="black" /><polygon fill="blue" opacity="0.5" points="620.7595087650403,384.1742712620799 634.495437242752,397.45570525902417 629.2404912349597,415.8257287379201" stroke="black" /><polygon fill="red" opacity="0.5" points="629.2404912349597,415.8257287379201 655.6370027030075,425.7147697468966 633.4809824699194,431.6514574758402" stroke="black" /><polygon fill="red" opacity="0.5" points="616.5190175300806,368.3485425241598 633.4809824699194,431.6514574758402 609.1742712620799,404.2404912349597" stroke="black" /><polygon fill="blue" opacity="0.5" points="710.0,373.7856 728.35008,373.7856 710.0,386.8928" stroke="black" /><polygon fill="blue" opacity="0.5" points="710.0,386.8928 717.86432,400.0 710.0,413.1072" stroke="black" /><polygon fill="red" opacity="0.5" points="710.0,413.1072 728.35008,426.2144 710.0,426.2144" stroke="black" /><polygon fill="red" opacity="0.5" points="710.0,373.7856 710.0,426.2144 696.8928,400.0" stroke="black" /><polygon fill="blue" opacity="0.5" points="800.4278287807484,379.74306721546225 814.6076817299248,383.5425473619862 797.7139143903742,389.8715336077311" stroke="black" /><polygon fill="blue" opacity="0.5" points="797.7139143903742,389.8715336077311 801.0770798353614,401.62834863422455 792.2860856096258,410.1284663922689" stroke="black" /><polygon fill="red" opacity="0.5" points="792.2860856096258,410.1284663922689 803.752024168428,424.05641293106163 789.5721712192516,420.25693278453775" stroke="black" /><polygon fill="red" opacity="0.5" points="800.4278287807484,379.74306721546225 789.5721712192516,420.25693278453775 784.8715336077312,397.2860856096258" stroke="black" /></svg>