<?xml version="1.0" encoding="utf-8" ?>
<svg baseProfile="full" height="600" version="1.1" width="800" xmlns="http://www.w3.org/2000/svg" xmlns:ev="http://www.w3.org/2001/xml-events" xmlns:xlink="http://www.w3.org/1999/xlink"><defs /><polygon fill="#FF0000" opacity="0.7" points="242.6776695296637,430.61862178478975 194.38137821521028,417.6776695296637 207.3223304703363,369.38137821521025 255.61862178478972,382.3223304703363" stroke="#000000" /><polygon fill="#FF0000" opacity="0.7" points="259.15063509461095,434.15063509461095 215.84936490538902,409.15063509461095 240.84936490538902,365.84936490538905 284.15063509461095,390.84936490538905" stroke="#000000" /><polygon fill="#FF0000" opacity="0.7" points="275.0,435.3553390593274 239.64466094067262,400.0 275.0,364.6446609406726 310.3553390593274,400.0" stroke="#000000" /><polygon fill="#FF0000" opacity="0.7" points="290.84936490538905,434.15063509461095 265.84936490538905,390.84936490538905 309.15063509461095,365.84936490538905 334.15063509461095,409.15063509461095" stroke="#000000" /><polygon fill="#FF0000" opacity="0.7" points="307.3223304703363,430.61862178478975 294.38137821521025,382.3223304703363 342.6776695296637,369.38137821521025 355.61862178478975,417.6776695296637" stroke="#000000" /><polygon fill="#FF0000" opacity="0.7" points="325.0,425.0 325.0,375.0 375.0,375.0 375.0,425.0" stroke="#000000" /><polygon fill="#FF0000" opacity="0.7" points="344.38137821521025,417.6776695296637 357.3223304703363,369.38137821521025 405.61862178478975,382.3223304703363 392.6776695296637,430.61862178478975" stroke="#000000" /><polygon fill="#FF0000" opacity="0.7" points="365.84936490538905,409.15063509461095 390.84936490538905,365.84936490538905 434.15063509461095,390.84936490538905 409.15063509461095,434.15063509461095" stroke="#000000" /><polygon fill="#FF0000" opacity="0.7" points="389.6446609406726,400.0 425.0,364.6446609406726 460.3553390593274,400.0 425.0,435.3553390593274" stroke="#000000" /><polygon fill="#FF0000" opacity="0.7" points="415.84936490538905,390.84936490538905 459.15063509461095,365.84936490538905 484.15063509461095,409.15063509461095 440.84936490538905,434.15063509461095" stroke="#000000" /><polygon fill="#FF0000" opacity="0.7" points="444.38137821521025,382.32233047033634 492.67766952966366,369.38137821521025 505.61862178478975,417.67766952966366 457.32233047033634,430.61862178478975" stroke="#000000" /><polygon fill="#FF0000" opacity="0.7" points="475.0,375.0 525.0,375.0 525.0,425.0 475.0,425.0" stroke="#000000" /><polygon fill="#FF0000" opacity="0.7" points="507.32233047033634,369.38137821521025 555.6186217847898,382.32233047033634 542.6776695296637,430.61862178478975 494.38137821521025,417.67766952966366" stroke="#000000" /><polygon fill="#FF0000" opacity="0.7" points="540.849364905389,365.84936490538905 584.150635094611,390.84936490538905 559.150635094611,434.15063509461095 515.849364905389,409.15063509461095" stroke="#000000" /><polygon fill="#FF0000" opacity="0.7" points="575.0,364.6446609406726 610.3553390593274,400.0 575.0,435.3553390593274 539.6446609406726,400.0" stroke="#000000" /><polygon fill="#FF0000" opacity="0.7" points="609.150635094611,365.84936490538905 634.150635094611,409.15063509461095 590.849364905389,434.15063509461095 565.849364905389,390.84936490538905" stroke="#000000" /><polygon fill="#FF0000" opacity="0.7" points="642.6776695296637,369.38137821521025 655.6186217847898,417.6776695296637 607.3223304703363,430.61862178478975 594.3813782152102,382.3223304703363" stroke="#000000" /><polygon fill="#FF0000" opacity="0.7" points="675.0,375.0 675.0,425.0 625.0,425.0 625.0,375.0" stroke="#000000" /><polygon fill="#FF0000" opacity="0.7" points="705.6186217847898,382.3223304703363 692.6776695296637,430.6186217847897 644.3813782152102,417.6776695296637 657.3223304703363,369.3813782152103" stroke="#000000" /><polygon fill="#FF0000" opacity="0.7" points="734.150635094611,390.84936490538905 709.150635094611,434.15063509461095 665.849364905389,409.15063509461095 690.849364905389,365.84936490538905" stroke="#000000" /><polygon fill="#FF0000" opacity="0.7" points="760.3553390593274,400.0 725.0,435.3553390593274 689.6446609406726,400.0 725.0,364.6446609406726" stroke="#000000" /><polygon fill="#FF0000" opacity="0.7" points="784.150635094611,409.15063509461095 740.849364905389,434.15063509461095 715.849364905389,390.84936490538905 759.150635094611,365.84936490538905" stroke="#000000" /><polygon fill="#FF0000" opacity="0.7" points="805.6186217847898,417.67766952966366 757.3223304703363,430.61862178478975 744.3813782152102,382.32233047033634 792.6776695296637,369.38137821521025" stroke="#000000" /><polygon fill="#FF0000" opacity="0.7" points="825.0,425.0 775.0,425.0 775.0,375.0 825.0,375.0" stroke="#000000" /><polygon fill="#FF0000" opacity="0.7" points="842.6776695296637,430.61862178478975 794.3813782152102,417.67766952966366 807.3223304703363,369.38137821521025 855.6186217847898,382.32233047033634" stroke="#000000" /><polygon fill="#FF0000" opacity="0.7" points="859.150635094611,434.15063509461095 815.849364905389,409.15063509461095 840.849364905389,365.84936490538905 884.150635094611,390.84936490538905" stroke="#000000" /><polygon fill="#FF0000" opacity="0.7" points="875.0,435.3553390593274 839.6446609406726,400.0 875.0,364.6446609406726 910.3553390593274,400.0" stroke="#000000" /><polygon fill="#FF0000" opacity="0.7" points="890.849364905389,434.15063509461095 865.849364905389,390.84936490538905 909.150635094611,365.84936490538905 934.150635094611,409.15063509461095" stroke="#000000" /><polygon fill="#FF0000" opacity="0.7" points="907.3223304703363,430.61862178478975 894.3813782152102,382.3223304703363 942.6776695296637,369.38137821521025 955.6186217847898,417.6776695296637" stroke="#000000" /><polygon fill="#FF0000" opacity="0.7" points="925.0,425.0 925.0,375.0 975.0,375.0 975.0,425.0" stroke="#000000" /><polygon fill="#FF0000" opacity="0.7" points="944.3813782152102,417.6776695296637 957.3223304703363,369.3813782152103 1005.6186217847898,382.3223304703363 992.6776695296637,430.6186217847897" stroke="#000000" /><polygon fill="#FF0000" opacity="0.7" points="965.849364905389,409.150635094611 990.849364905389,365.84936490538905 1034.150635094611,390.849364905389 1009.150635094611,434.15063509461095" stroke="#000000" /><polygon fill="#FF0000" opacity="0.7" points="989.6446609406726,400.0 1025.0,364.6446609406726 1060.3553390593274,400.0 1025.0,435.3553390593274" stroke="#000000" /><polygon fill="#FF0000" opacity="0.7" points="1015.849364905389,390.84936490538905 1059.150635094611,365.84936490538905 1084.150635094611,409.15063509461095 1040.849364905389,434.15063509461095" stroke="#000000" /><polygon fill="#FF0000" opacity="0.7" points="1044.3813782152104,382.32233047033634 1092.6776695296637,369.38137821521025 1105.6186217847896,417.67766952966366 1057.3223304703363,430.61862178478975" stroke="#000000" /><polygon fill="#FF0000" opacity="0.7" points="1075.0,375.0 1125.0,375.0 1125.0,425.0 1075.0,425.0" stroke="#000000" /><polygon fill="#FF0000" opacity="0.7" points="1107.3223304703363,369.3813782152103 1155.6186217847896,382.3223304703363 1142.6776695296637,430.6186217847897 1094.3813782152104,417.6776695296637" stroke="#000000" /><polygon fill="#FF0000" opacity="0.7" points="1140.849364905389,365.84936490538905 1184.150635094611,390.849364905389 1159.150635094611,434.15063509461095 1115.849364905389,409.150635094611" stroke="#000000" /><polygon fill="#FF0000" opacity="0.7" points="1175.0,364.6446609406726 1210.3553390593274,399.99999999999994 1175.0,435.3553390593274 1139.6446609406726,400.00000000000006" stroke="#000000" /><polygon fill="#FF0000" opacity="0.7" points="1209.150635094611,365.84936490538905 1234.150635094611,409.15063509461095 1190.849364905389,434.15063509461095 1165.849364905389,390.84936490538905" stroke="#000000" /><polygon fill="#FF0000" opacity="0.7" points="1242.6776695296637,369.38137821521025 1255.6186217847899,417.6776695296636 1207.3223304703363,430.61862178478975 1194.3813782152101,382.3223304703364" stroke="#000000" /><polygon fill="#FF0000" opacity="0.7" points="1275.0,375.0 1275.0,425.0 1225.0,425.0 1225.0,375.0" stroke="#000000" /><polygon fill="#FF0000" opacity="0.7" points="1305.6186217847896,382.3223304703363 1292.6776695296637,430.6186217847897 1244.3813782152104,417.6776695296637 1257.3223304703363,369.3813782152103" stroke="#000000" /><polygon fill="#FF0000" opacity="0.7" points="1334.150635094611,390.849364905389 1309.150635094611,434.15063509461095 1265.849364905389,409.150635094611 1290.849364905389,365.84936490538905" stroke="#000000" /><polygon fill="#FF0000" opacity="0.7" points="1360.3553390593274,400.0 1325.0,435.3553390593274 1289.6446609406726,400.0 1325.0,364.6446609406726" stroke="#000000" /><polygon fill="#FF0000" opacity="0.7" points="1384.150635094611,409.1506350946109 1340.8493649053892,434.15063509461095 1315.849364905389,390.8493649053891 1359.1506350946108,365.84936490538905" stroke="#000000" /><polygon fill="#FF0000" opacity="0.7" points="1405.6186217847896,417.67766952966366 1357.3223304703363,430.61862178478975 1344.3813782152104,382.32233047033634 1392.6776695296637,369.38137821521025" stroke="#000000" /><polygon fill="#FF0000" opacity="0.7" points="1425.0,425.0 1375.0,425.0 1375.0,375.0 1425.0,375.0" stroke="#000000" /><polygon fill="#FF0000" opacity="0.7" points="1442.6776695296637,430.6186217847897 1394.3813782152104,417.6776695296637 1407.3223304703363,369.3813782152103 1455.6186217847896,382.3223304703363" stroke="#000000" /></svg>