<?xml version="1.0" encoding="utf-8" ?>
<svg baseProfile="full" height="600" version="1.1" width="800" xmlns="http://www.w3.org/2000/svg" xmlns:ev="http://www.w3.org/2001/xml-events" xmlns:xlink="http://www.w3.org/1999/xlink"><defs /><polygon fill="blue" opacity="0.5" points="269.976831230582,250.9107574570412 215.27332929069473,395.45366473357825 337.5380750467255,463.864560452776" stroke="black" /><polygon fill="blue" opacity="0.5" points="269.976831230582,250.9107574570412 337.5380750467255,463.864560452776 392.24157698661276,319.32165317623907" stroke="black" /><polygon fill="red" opacity="0.5" points="182.4619249532745,256.135439547224 127.75842301338726,400.678346823761 250.02316876941805,469.0892425429588" stroke="black" /><polygon fill="red" opacity="0.5" points="182.4619249532745,256.135439547224 250.02316876941805,469.0892425429588 304.72667070930527,324.5463352664218" stroke="black" /><polygon fill="green" opacity="0.5" points="269.976831230582,250.9107574570412 215.27332929069473,395.45366473357825 127.75842301338726,400.678346823761" stroke="black" /><polygon fill="green" opacity="0.5" points="269.976831230582,250.9107574570412 127.75842301338726,400.678346823761 182.4619249532745,256.135439547224" stroke="black" /><polygon fill="purple" opacity="0.5" points="337.5380750467255,463.864560452776 392.24157698661276,319.32165317623907 304.72667070930527,324.5463352664218" stroke="black" /><polygon fill="purple" opacity="0.5" points="337.5380750467255,463.864560452776 304.72667070930527,324.5463352664218 250.02316876941805,469.0892425429588" stroke="black" /><polygon fill="yellow" opacity="0.5" points="215.27332929069473,395.45366473357825 337.5380750467255,463.864560452776 250.02316876941805,469.0892425429588" stroke="black" /><polygon fill="yellow" opacity="0.5" points="215.27332929069473,395.45366473357825 250.02316876941805,469.0892425429588 127.75842301338726,400.678346823761" stroke="black" /><polygon fill="white" opacity="0.5" points="269.976831230582,250.9107574570412 392.24157698661276,319.32165317623907 304.72667070930527,324.5463352664218" stroke="black" /><polygon fill="white" opacity="0.5" points="269.976831230582,250.9107574570412 304.72667070930527,324.5463352664218 182.4619249532745,256.135439547224" stroke="black" /><polygon fill="blue" opacity="0.5" points="358.2155228790351,265.8952991278154 297.962651379441,386.9599117656167 398.4338594880341,457.20074107398915" stroke="black" /><polygon fill="blue" opacity="0.5" points="358.2155228790351,265.8952991278154 398.4338594880341,457.20074107398915 458.6867309876282,336.1361284361878" stroke="black" /><polygon fill="red" opacity="0.5" points="281.5661405119659,262.7992589260108 221.3132690123718,383.86387156381215 321.7844771209648,454.1047008721846" stroke="black" /><polygon fill="red" opacity="0.5" points="281.5661405119659,262.7992589260108 321.7844771209648,454.1047008721846 382.037348620559,333.04008823438323" stroke="black" /><polygon fill="green" opacity="0.5" points="358.2155228790351,265.8952991278154 297.962651379441,386.9599117656167 221.3132690123718,383.86387156381215" stroke="black" /><polygon fill="green" opacity="0.5" points="358.2155228790351,265.8952991278154 221.3132690123718,383.86387156381215 281.5661405119659,262.7992589260108" stroke="black" /><polygon fill="purple" opacity="0.5" points="398.4338594880341,457.20074107398915 458.6867309876282,336.1361284361878 382.037348620559,333.04008823438323" stroke="black" /><polygon fill="purple" opacity="0.5" points="398.4338594880341,457.20074107398915 382.037348620559,333.04008823438323 321.7844771209648,454.1047008721846" stroke="black" /><polygon fill="yellow" opacity="0.5" points="297.962651379441,386.9599117656167 398.4338594880341,457.20074107398915 321.7844771209648,454.1047008721846" stroke="black" /><polygon fill="yellow" opacity="0.5" points="297.962651379441,386.9599117656167 321.7844771209648,454.1047008721846 221.3132690123718,383.86387156381215" stroke="black" /><polygon fill="white" opacity="0.5" points="358.2155228790351,265.8952991278154 458.6867309876282,336.1361284361878 382.037348620559,333.04008823438323" stroke="black" /><polygon fill="white" opacity="0.5" points="358.2155228790351,265.8952991278154 382.037348620559,333.04008823438323 281.5661405119659,262.7992589260108" stroke="black" /><polygon fill="blue" opacity="0.5" points="443.58798424110444,281.30052732424815 381.84099678963497,379.395850596645 461.5183298587241,447.89896635195544" stroke="black" /><polygon fill="blue" opacity="0.5" points="443.58798424110444,281.30052732424815 461.5183298587241,447.89896635195544 523.2653173101935,349.8036430795586" stroke="black" /><polygon fill="red" opacity="0.5" points="378.4816701412759,272.1010336480447 316.7346826898065,370.19635692044153 396.4120157588956,438.6994726757519" stroke="black" /><polygon fill="red" opacity="0.5" points="378.4816701412759,272.1010336480447 396.4120157588956,438.6994726757519 458.15900321036503,340.60414940335505" stroke="black" /><polygon fill="green" opacity="0.5" points="443.58798424110444,281.30052732424815 381.84099678963497,379.395850596645 316.7346826898065,370.19635692044153" stroke="black" /><polygon fill="green" opacity="0.5" points="443.58798424110444,281.30052732424815 316.7346826898065,370.19635692044153 378.4816701412759,272.1010336480447" stroke="black" /><polygon fill="purple" opacity="0.5" points="461.5183298587241,447.89896635195544 523.2653173101935,349.8036430795586 458.15900321036503,340.60414940335505" stroke="black" /><polygon fill="purple" opacity="0.5" points="461.5183298587241,447.89896635195544 458.15900321036503,340.60414940335505 396.4120157588956,438.6994726757519" stroke="black" /><polygon fill="yellow" opacity="0.5" points="381.84099678963497,379.395850596645 461.5183298587241,447.89896635195544 396.4120157588956,438.6994726757519" stroke="black" /><polygon fill="yellow" opacity="0.5" points="381.84099678963497,379.395850596645 396.4120157588956,438.6994726757519 316.7346826898065,370.19635692044153" stroke="black" /><polygon fill="white" opacity="0.5" points="443.58798424110444,281.30052732424815 523.2653173101935,349.8036430795586 458.15900321036503,340.60414940335505" stroke="black" /><polygon fill="white" opacity="0.5" points="443.58798424110444,281.30052732424815 458.15900321036503,340.60414940335505 378.4816701412759,272.1010336480447" stroke="black" /><polygon fill="blue" opacity="0.5" points="526.1058165132794,296.7071382842031 466.74606569082897,372.90784038870333 527.1130475118143,436.33729530591256" stroke="black" /><polygon fill="blue" opacity="0.5" points="526.1058165132794,296.7071382842031 527.1130475118143,436.33729530591256 586.4727983342648,360.1365932014123" stroke="black" /><polygon fill="red" opacity="0.5" points="472.88695248818567,283.66270469408744 413.5272016657352,359.8634067985877 473.8941834867206,423.2928617157969" stroke="black" /><polygon fill="red" opacity="0.5" points="472.88695248818567,283.66270469408744 473.8941834867206,423.2928617157969 533.253934309171,347.09215961129667" stroke="black" /><polygon fill="green" opacity="0.5" points="526.1058165132794,296.7071382842031 466.74606569082897,372.90784038870333 413.5272016657352,359.8634067985877" stroke="black" /><polygon fill="green" opacity="0.5" points="526.1058165132794,296.7071382842031 413.5272016657352,359.8634067985877 472.88695248818567,283.66270469408744" stroke="black" /><polygon fill="purple" opacity="0.5" points="527.1130475118143,436.33729530591256 586.4727983342648,360.1365932014123 533.253934309171,347.09215961129667" stroke="black" /><polygon fill="purple" opacity="0.5" points="527.1130475118143,436.33729530591256 533.253934309171,347.09215961129667 473.8941834867206,423.2928617157969" stroke="black" /><polygon fill="yellow" opacity="0.5" points="466.74606569082897,372.90784038870333 527.1130475118143,436.33729530591256 473.8941834867206,423.2928617157969" stroke="black" /><polygon fill="yellow" opacity="0.5" points="466.74606569082897,372.90784038870333 473.8941834867206,423.2928617157969 413.5272016657352,359.8634067985877" stroke="black" /><polygon fill="white" opacity="0.5" points="526.1058165132794,296.7071382842031 586.4727983342648,360.1365932014123 533.253934309171,347.09215961129667" stroke="black" /><polygon fill="white" opacity="0.5" points="526.1058165132794,296.7071382842031 533.253934309171,347.09215961129667 472.88695248818567,283.66270469408744" stroke="black" /><polygon fill="blue" opacity="0.5" points="605.8353110425121,311.7036574538335 552.4988504343654,367.618800857976 595.4852657597353,422.9301719714031" stroke="black" /><polygon fill="blue" opacity="0.5" points="605.8353110425121,311.7036574538335 595.4852657597353,422.9301719714031 648.821726367882,367.0150285672606" stroke="black" /><polygon fill="red" opacity="0.5" points="564.5147342402647,297.06982802859693 511.178273632118,352.9849714327395 554.1646889574879,408.2963425461665" stroke="black" /><polygon fill="red" opacity="0.5" points="564.5147342402647,297.06982802859693 554.1646889574879,408.2963425461665 607.5011495656346,352.381199142024" stroke="black" /><polygon fill="green" opacity="0.5" points="605.8353110425121,311.7036574538335 552.4988504343654,367.618800857976 511.178273632118,352.9849714327395" stroke="black" /><polygon fill="green" opacity="0.5" points="605.8353110425121,311.7036574538335 511.178273632118,352.9849714327395 564.5147342402647,297.06982802859693" stroke="black" /><polygon fill="purple" opacity="0.5" points="595.4852657597353,422.9301719714031 648.821726367882,367.0150285672606 607.5011495656346,352.381199142024" stroke="black" /><polygon fill="purple" opacity="0.5" points="595.4852657597353,422.9301719714031 607.5011495656346,352.381199142024 554.1646889574879,408.2963425461665" stroke="black" /><polygon fill="yellow" opacity="0.5" points="552.4988504343654,367.618800857976 595.4852657597353,422.9301719714031 554.1646889574879,408.2963425461665" stroke="black" /><polygon fill="yellow" opacity="0.5" points="552.4988504343654,367.618800857976 554.1646889574879,408.2963425461665 511.178273632118,352.9849714327395" stroke="black" /><polygon fill="white" opacity="0.5" points="605.8353110425121,311.7036574538335 648.821726367882,367.0150285672606 607.5011495656346,352.381199142024" stroke="black" /><polygon fill="white" opacity="0.5" points="605.8353110425121,311.7036574538335 607.5011495656346,352.381199142024 564.5147342402647,297.06982802859693" stroke="black" /><polygon fill="blue" opacity="0.5" points="682.8958732398617,325.89312402778313 638.9067230338921,363.6264036489429 666.8440273899722,408.1212976662653" stroke="black" /><polygon fill="blue" opacity="0.5" points="682.8958732398617,325.89312402778313 666.8440273899722,408.1212976662653 710.8331775959418,370.3880180451056" stroke="black" /><polygon fill="red" opacity="0.5" points="653.1559726100279,311.87870233373474 609.1668224040582,349.6119819548945 637.1041267601383,394.10687597221687" stroke="black" /><polygon fill="red" opacity="0.5" points="653.1559726100279,311.87870233373474 637.1041267601383,394.10687597221687 681.093276966108,356.37359635105713" stroke="black" /><polygon fill="green" opacity="0.5" points="682.8958732398617,325.89312402778313 638.9067230338921,363.6264036489429 609.1668224040582,349.6119819548945" stroke="black" /><polygon fill="green" opacity="0.5" points="682.8958732398617,325.89312402778313 609.1668224040582,349.6119819548945 653.1559726100279,311.87870233373474" stroke="black" /><polygon fill="purple" opacity="0.5" points="666.8440273899722,408.1212976662653 710.8331775959418,370.3880180451056 681.093276966108,356.37359635105713" stroke="black" /><polygon fill="purple" opacity="0.5" points="666.8440273899722,408.1212976662653 681.093276966108,356.37359635105713 637.1041267601383,394.10687597221687" stroke="black" /><polygon fill="yellow" opacity="0.5" points="638.9067230338921,363.6264036489429 666.8440273899722,408.1212976662653 637.1041267601383,394.10687597221687" stroke="black" /><polygon fill="yellow" opacity="0.5" points="638.9067230338921,363.6264036489429 637.1041267601383,394.10687597221687 609.1668224040582,349.6119819548945" stroke="black" /><polygon fill="white" opacity="0.5" points="682.8958732398617,325.89312402778313 710.8331775959418,370.3880180451056 681.093276966108,356.37359635105713" stroke="black" /><polygon fill="white" opacity="0.5" points="682.8958732398617,325.89312402778313 681.093276966108,356.37359635105713 653.1559726100279,311.87870233373474" stroke="black" /><polygon fill="blue" opacity="0.5" points="757.4576634671974,338.8995263971142 725.7667101952967,361.00164855191554 741.3371481338646,392.3761028363221" stroke="black" /><polygon fill="blue" opacity="0.5" points="757.4576634671974,338.8995263971142 741.3371481338646,392.3761028363221 773.0281014057653,370.2739806815208" stroke="black" /><polygon fill="red" opacity="0.5" points="738.6628518661354,327.62389716367795 706.9718985942347,349.72601931847925 722.5423365328027,381.10047360288587" stroke="black" /><polygon fill="red" opacity="0.5" points="738.6628518661354,327.62389716367795 722.5423365328027,381.10047360288587 754.2332898047033,358.9983514480845" stroke="black" /><polygon fill="green" opacity="0.5" points="757.4576634671974,338.8995263971142 725.7667101952967,361.00164855191554 706.9718985942347,349.72601931847925" stroke="black" /><polygon fill="green" opacity="0.5" points="757.4576634671974,338.8995263971142 706.9718985942347,349.72601931847925 738.6628518661354,327.62389716367795" stroke="black" /><polygon fill="purple" opacity="0.5" points="741.3371481338646,392.3761028363221 773.0281014057653,370.2739806815208 754.2332898047033,358.9983514480845" stroke="black" /><polygon fill="purple" opacity="0.5" points="741.3371481338646,392.3761028363221 754.2332898047033,358.9983514480845 722.5423365328027,381.10047360288587" stroke="black" /><polygon fill="yellow" opacity="0.5" points="725.7667101952967,361.00164855191554 741.3371481338646,392.3761028363221 722.5423365328027,381.10047360288587" stroke="black" /><polygon fill="yellow" opacity="0.5" points="725.7667101952967,361.00164855191554 722.5423365328027,381.10047360288587 706.9718985942347,349.72601931847925" stroke="black" /><polygon fill="white" opacity="0.5" points="757.4576634671974,338.8995263971142 773.0281014057653,370.2739806815208 754.2332898047033,358.9983514480845" stroke="black" /><polygon fill="white" opacity="0.5" points="757.4576634671974,338.8995263971142 754.2332898047033,358.9983514480845 738.6628518661354,327.62389716367795" stroke="black" /></svg>