<?xml version="1.0" encoding="utf-8" ?>
<svg baseProfile="full" height="600" version="1.1" width="800" xmlns="http://www.w3.org/2000/svg" xmlns:ev="http://www.w3.org/2001/xml-events" xmlns:xlink="http://www.w3.org/1999/xlink"><defs /><polygon fill="blue" opacity="0.5" points="99.39764801764179,131.5373300835459 74.39764801764179,224.83860027276782 154.69991348603355,259.7529870769692" stroke="black" /><polygon fill="blue" opacity="0.5" points="99.39764801764179,131.5373300835459 154.69991348603355,259.7529870769692 179.69991348603355,166.45171688774724" stroke="black" /><polygon fill="red" opacity="0.5" points="45.300086513966434,140.24701292303084 20.300086513966434,233.54828311225276 100.60235198235821,268.4626699164541" stroke="black" /><polygon fill="red" opacity="0.5" points="45.300086513966434,140.24701292303084 100.60235198235821,268.4626699164541 125.60235198235821,175.16139972723218" stroke="black" /><polygon fill="green" opacity="0.5" points="99.39764801764179,131.5373300835459 74.39764801764179,224.83860027276782 20.300086513966434,233.54828311225276" stroke="black" /><polygon fill="green" opacity="0.5" points="99.39764801764179,131.5373300835459 20.300086513966434,233.54828311225276 45.300086513966434,140.24701292303084" stroke="black" /><polygon fill="purple" opacity="0.5" points="154.69991348603355,259.7529870769692 179.69991348603355,166.45171688774724 125.60235198235821,175.16139972723218" stroke="black" /><polygon fill="purple" opacity="0.5" points="154.69991348603355,259.7529870769692 125.60235198235821,175.16139972723218 100.60235198235821,268.4626699164541" stroke="black" /><polygon fill="yellow" opacity="0.5" points="74.39764801764179,224.83860027276782 154.69991348603355,259.7529870769692 100.60235198235821,268.4626699164541" stroke="black" /><polygon fill="yellow" opacity="0.5" points="74.39764801764179,224.83860027276782 100.60235198235821,268.4626699164541 20.300086513966434,233.54828311225276" stroke="black" /><polygon fill="white" opacity="0.5" points="99.39764801764179,131.5373300835459 179.69991348603355,166.45171688774724 125.60235198235821,175.16139972723218" stroke="black" /><polygon fill="white" opacity="0.5" points="99.39764801764179,131.5373300835459 125.60235198235821,175.16139972723218 45.300086513966434,140.24701292303084" stroke="black" /></svg>